STARTFONT 2.1
COMMENT Exported by Fony v1.4.7
FONT WindyArrows
SIZE 15 96 96
FONTBOUNDINGBOX 15 14 0 -6
STARTPROPERTIES 6
COPYRIGHT "Created with Fony 1.4.7"
RESOLUTION_X 96
RESOLUTION_Y 96
FONT_ASCENT 9
FONT_DESCENT 6
DEFAULT_CHAR 0
ENDPROPERTIES
CHARS 8
STARTCHAR 032
ENCODING 32
SWIDTH 1080 0
DWIDTH 15 0
BBX 11 15 2 -6
BITMAP
0400
0400
0E00
0E00
0E00
1F00
1F00
1F00
3F80
3F80
3F80
7FC0
7FC0
71C0
C060
ENDCHAR
STARTCHAR 033
ENCODING 33
SWIDTH 1080 0
DWIDTH 15 0
BBX 15 15 0 -6
BITMAP
0006
001E
007C
01FC
07F8
1FF8
7FF0
FFF0
0FE0
03E0
03C0
01C0
0180
0180
0100
ENDCHAR
STARTCHAR 034
ENCODING 34
SWIDTH 1080 0
DWIDTH 15 0
BBX 15 11 0 -4
BITMAP
8000
F000
7E00
7FC0
3FF8
3FFE
3FF8
7FC0
7E00
F000
8000
ENDCHAR
STARTCHAR 035
ENCODING 35
SWIDTH 1080 0
DWIDTH 15 0
BBX 15 15 0 -6
BITMAP
0100
0180
0180
01C0
03C0
03E0
0FE0
FFF0
7FF0
1FF8
07F8
01FC
007C
001E
0006
ENDCHAR
STARTCHAR 036
ENCODING 36
SWIDTH 1080 0
DWIDTH 15 0
BBX 11 15 2 -6
BITMAP
C060
71C0
7FC0
7FC0
3F80
3F80
3F80
1F00
1F00
1F00
0E00
0E00
0E00
0400
0400
ENDCHAR
STARTCHAR 037
ENCODING 37
SWIDTH 1080 0
DWIDTH 15 0
BBX 15 15 0 -6
BITMAP
0100
0300
0300
0700
0780
0F80
0FE0
1FFE
1FFC
3FF0
3FC0
7F00
7C00
F000
C000
ENDCHAR
STARTCHAR 038
ENCODING 38
SWIDTH 1080 0
DWIDTH 15 0
BBX 15 11 0 -4
BITMAP
0002
001E
00FC
07FC
3FF8
FFF8
3FF8
07FC
00FC
001E
0002
ENDCHAR
STARTCHAR 039
ENCODING 39
SWIDTH 1080 0
DWIDTH 15 0
BBX 15 15 0 -6
BITMAP
C000
F000
7C00
7F00
3FC0
3FF0
1FFC
1FFE
0FE0
0F80
0780
0700
0300
0300
0100
ENDCHAR
ENDFONT
